<svg width="40" height="40" viewBox="0 0 40 40" fill="none" xmlns="http://www.w3.org/2000/svg">
<path d="M5 5H8.33333L9.16667 10M9.16667 10L11.6667 25H30L35 10H9.16667Z" stroke="#F8F8F8" stroke-width="3.33333" stroke-linecap="round" stroke-linejoin="round"/>
<path d="M13.3334 35C14.2538 35 15 34.2538 15 33.3333C15 32.4128 14.2538 31.6667 13.3334 31.6667C12.4129 31.6667 11.6667 32.4128 11.6667 33.3333C11.6667 34.2538 12.4129 35 13.3334 35Z" stroke="#F8F8F8" stroke-width="3.33333" stroke-linecap="round" stroke-linejoin="round"/>
<path d="M28.3334 35C29.2538 35 30 34.2538 30 33.3333C30 32.4128 29.2538 31.6667 28.3334 31.6667C27.4129 31.6667 26.6667 32.4128 26.6667 33.3333C26.6667 34.2538 27.4129 35 28.3334 35Z" stroke="#F8F8F8" stroke-width="3.33333" stroke-linecap="round" stroke-linejoin="round"/>
</svg>
