<svg width="40" height="40" viewBox="0 0 40 40" fill="none" xmlns="http://www.w3.org/2000/svg">
<path d="M20 21.6667C24.6024 21.6667 28.3334 17.9357 28.3334 13.3333C28.3334 8.73096 24.6024 5 20 5C15.3976 5 11.6667 8.73096 11.6667 13.3333C11.6667 17.9357 15.3976 21.6667 20 21.6667Z" stroke="#F8F8F8" stroke-width="3.33333" stroke-linecap="round" stroke-linejoin="round"/>
<path d="M33.3334 35C33.3334 31.4638 31.9286 28.0724 29.4281 25.5719C26.9276 23.0714 23.5362 21.6667 20 21.6667C16.4638 21.6667 13.0724 23.0714 10.5719 25.5719C8.07145 28.0724 6.66669 31.4638 6.66669 35M33.3334 35C33.3334 31.4638 31.9286 28.0724 29.4281 25.5719C26.9276 23.0714 23.5362 21.6667 20 21.6667C16.4638 21.6667 13.0724 23.0714 10.5719 25.5719C8.07145 28.0724 6.66669 31.4638 6.66669 35" stroke="#F8F8F8" stroke-width="3.33333" stroke-linecap="round" stroke-linejoin="round"/>
</svg>
